<svg xmlns="http://www.w3.org/2000/svg" width="17.886" height="24.428" viewBox="0 0 17.886 24.428">
  <g id="bag" transform="translate(-68.557)">
    <g id="Group_1" data-name="Group 1" transform="translate(68.557)">
      <path id="Path_1" data-name="Path 1" d="M86.431,21.1l-1.3-14.3a.765.765,0,0,0-.762-.695h-2.29V4.58a4.58,4.58,0,1,0-9.16,0V6.107h-2.29a.762.762,0,0,0-.76.695l-1.3,14.3a3.053,3.053,0,0,0,3.041,3.33H83.389a3.053,3.053,0,0,0,3.041-3.33ZM74.446,4.58a3.053,3.053,0,1,1,6.107,0V6.107H74.446ZM84.516,22.4a1.515,1.515,0,0,1-1.128.5H71.611a1.526,1.526,0,0,1-1.519-1.666l1.235-13.6h1.592v2.29a.763.763,0,0,0,1.527,0V7.634h6.107v2.29a.763.763,0,0,0,1.527,0V7.634h1.592l1.237,13.6A1.508,1.508,0,0,1,84.516,22.4Z" transform="translate(-68.557 0)" fill="#fff"/>
    </g>
  </g>
</svg>
