<svg xmlns="http://www.w3.org/2000/svg" width="17.925" height="20.437" viewBox="0 0 17.925 20.437">
  <g id="Zalo" transform="translate(-944.302 -517.082)">
    <g id="zalo-2" transform="translate(944.302 517.082)">
      <path id="Path_77" data-name="Path 77" d="M139.7,114.707,145.352,107v8.335a2.073,2.073,0,0,0-1.484-.628Z" transform="translate(-127.426 -102.433)" fill="#fc9214"/>
      <path id="Path_78" data-name="Path 78" d="M136.125,100.827v.285a1.507,1.507,0,0,0-1.085-.4h-8.563a2.055,2.055,0,1,0,0,4.11h3.6l-5.823,7.992a1.7,1.7,0,0,0,.343,2.283,1.924,1.924,0,0,0,.97.285h9.077a2.073,2.073,0,0,0,1.484-.628v.343a1.8,1.8,0,0,1-1.827,1.827h-7.935l-3.482,2.512v-2.512h-2.854A1.8,1.8,0,0,1,118.2,115.1V100.827A1.8,1.8,0,0,1,120.027,99H134.3A1.8,1.8,0,0,1,136.125,100.827Z" transform="translate(-118.2 -99)" fill="#fc9214"/>
    </g>
  </g>
</svg>
