<svg xmlns="http://www.w3.org/2000/svg" width="17.082" height="17.083" viewBox="0 0 17.082 17.083">
  <g id="telephone-handle-silhouette" transform="translate(-0.01)">
    <path id="Path_79" data-name="Path 79" d="M17.056,13.236q-.072-.218-.922-.643-.23-.134-.655-.364t-.77-.425q-.346-.194-.649-.376-.048-.036-.3-.212a3.41,3.41,0,0,0-.431-.261.794.794,0,0,0-.346-.085,1.007,1.007,0,0,0-.606.346,5.907,5.907,0,0,0-.667.752,7.315,7.315,0,0,1-.643.752.925.925,0,0,1-.558.346.825.825,0,0,1-.273-.061c-.109-.04-.192-.075-.249-.1s-.153-.085-.291-.17-.215-.131-.231-.14A12.75,12.75,0,0,1,6.61,10.482,12.743,12.743,0,0,1,4.5,7.631q-.012-.024-.14-.23t-.17-.291a2.629,2.629,0,0,1-.1-.249.821.821,0,0,1-.061-.273.925.925,0,0,1,.346-.558,7.307,7.307,0,0,1,.752-.643,5.9,5.9,0,0,0,.752-.667,1.007,1.007,0,0,0,.346-.607.792.792,0,0,0-.085-.346,3.373,3.373,0,0,0-.261-.431q-.176-.255-.212-.3-.182-.3-.376-.649t-.425-.77Q4.633,1.189,4.5.958,4.075.109,3.856.037A.679.679,0,0,0,3.6,0a4,4,0,0,0-.855.121,4.8,4.8,0,0,0-.831.255A3.252,3.252,0,0,0,.629,1.856,4.7,4.7,0,0,0,.01,4.113a4.686,4.686,0,0,0,.042.637,5.235,5.235,0,0,0,.152.7q.109.388.176.576T.629,6.7q.182.485.218.594A10.99,10.99,0,0,0,1.854,9.415a17.99,17.99,0,0,0,2.614,3.209,18,18,0,0,0,3.209,2.615A11.006,11.006,0,0,0,9.8,16.246q.109.036.594.218t.673.249q.188.067.576.176a5.281,5.281,0,0,0,.7.152,4.5,4.5,0,0,0,2.894-.577,3.25,3.25,0,0,0,1.48-1.286,4.778,4.778,0,0,0,.255-.831,3.989,3.989,0,0,0,.121-.855A.677.677,0,0,0,17.056,13.236Z" transform="translate(0)" fill="#fc9214"/>
  </g>
</svg>
