<svg xmlns="http://www.w3.org/2000/svg" width="38.5" height="32.592" viewBox="0 0 38.5 32.592">
  <g id="diamond_1" data-name="diamond 1" transform="translate(0 -39.279)">
    <g id="Group_120" data-name="Group 120" transform="translate(21.16 47.841)">
      <g id="Group_119" data-name="Group 119">
        <path id="Path_215" data-name="Path 215" d="M288.577,153.145,281.4,175.866l17.34-22.721Z" transform="translate(-281.402 -153.145)" fill="#55bd8d"/>
      </g>
    </g>
    <g id="Group_122" data-name="Group 122" transform="translate(0.081 39.804)">
      <g id="Group_121" data-name="Group 121">
        <path id="Path_216" data-name="Path 216" d="M6.59,46.263l-5.508,6.61h9.364Z" transform="translate(-1.082 -46.263)" fill="#55bd8d"/>
      </g>
    </g>
    <g id="Group_124" data-name="Group 124" transform="translate(29.054 39.804)">
      <g id="Group_123" data-name="Group 123">
        <path id="Path_217" data-name="Path 217" d="M390.242,46.263l-3.856,6.61h9.364Z" transform="translate(-386.386 -46.263)" fill="#55bd8d"/>
      </g>
    </g>
    <g id="Group_126" data-name="Group 126" transform="translate(0 47.841)">
      <g id="Group_125" data-name="Group 125">
        <path id="Path_218" data-name="Path 218" d="M10.165,153.145H0l17.34,22.721Z" transform="translate(0 -153.145)" fill="#55bd8d"/>
      </g>
    </g>
    <g id="Group_128" data-name="Group 128" transform="translate(20.972 39.279)">
      <g id="Group_127" data-name="Group 127">
        <path id="Path_219" data-name="Path 219" d="M278.906,39.279l6.69,6.69,3.9-6.69Z" transform="translate(-278.906 -39.279)" fill="#55bd8d"/>
      </g>
    </g>
    <g id="Group_130" data-name="Group 130" transform="translate(6.935 39.279)">
      <g id="Group_129" data-name="Group 129">
        <path id="Path_220" data-name="Path 220" d="M92.232,39.279l3.9,6.69,6.69-6.69Z" transform="translate(-92.232 -39.279)" fill="#55bd8d"/>
      </g>
    </g>
    <g id="Group_132" data-name="Group 132" transform="translate(11.661 47.841)">
      <g id="Group_131" data-name="Group 131">
        <path id="Path_221" data-name="Path 221" d="M155.076,153.145l7.589,24.03,7.589-24.03Z" transform="translate(-155.076 -153.145)" fill="#55bd8d"/>
      </g>
    </g>
    <g id="Group_134" data-name="Group 134" transform="translate(12.41 39.574)">
      <g id="Group_133" data-name="Group 133">
        <path id="Path_222" data-name="Path 222" d="M171.88,43.208l-6.84,6.84h13.679Z" transform="translate(-165.04 -43.208)" fill="#55bd8d"/>
      </g>
    </g>
  </g>
</svg>
