<svg xmlns="http://www.w3.org/2000/svg" width="160" height="160" viewBox="0 0 160 160">
  <g id="Group_3194" data-name="Group 3194" transform="translate(-976 -771)">
    <circle id="Ellipse_9" data-name="Ellipse 9" cx="80" cy="80" r="80" transform="translate(976 771)" fill="#fff"/>
    <g id="_010-mouse-toy" data-name="010-mouse-toy" transform="translate(1016.168 811.168)">
      <path id="Path_51" data-name="Path 51" d="M336.994,312A9.005,9.005,0,0,0,328,320.994c0,.115.006.23.022.457l2.567-.122-.019-.336a6.425,6.425,0,1,1,10.2,5.187l1.516,2.075A8.988,8.988,0,0,0,336.994,312Zm0,0" transform="translate(-275.319 -261.888)"/>
      <path id="Path_52" data-name="Path 52" d="M52.681,25.7a3.83,3.83,0,0,0-1-2.57,3.819,3.819,0,0,0-1.568-6.188V7.788c.851-.049,1.707-.078,2.57-.078a3.855,3.855,0,0,0,0-7.709A52.742,52.742,0,0,0,0,52.681V79.665H7.709V52.681A45.033,45.033,0,0,1,47.542,8.011V16.94a3.819,3.819,0,0,0-1.568,6.188,3.819,3.819,0,0,0,1.568,6.188V51.4a3.86,3.86,0,0,0-3.855,3.855v2.57h2.57v-2.57a1.285,1.285,0,1,1,2.57,0v2.57H51.4v-2.57A3.837,3.837,0,0,0,50.112,52.4V29.317a3.85,3.85,0,0,0,2.57-3.618ZM2.57,57.821H5.14v2.57H2.57Zm0,19.274V62.961H5.14V77.095ZM5.14,52.681v2.57H2.57v-2.57A50.168,50.168,0,0,1,52.681,2.57a1.285,1.285,0,0,1,0,2.57A47.6,47.6,0,0,0,5.14,52.681Zm43.687-25.7A1.285,1.285,0,1,1,50.112,25.7,1.287,1.287,0,0,1,48.827,26.983Zm0-7.709a1.285,1.285,0,1,1-1.285,1.285A1.287,1.287,0,0,1,48.827,19.274Zm0,0"/>
      <path id="Path_53" data-name="Path 53" d="M127.419,344.7h-7.067a8.352,8.352,0,0,1,0-16.7,7.075,7.075,0,0,1,7.067,7.067v.642h-2.57v-.642a4.5,4.5,0,0,0-4.5-4.5,5.782,5.782,0,0,0,0,11.564h7.067Zm0,0" transform="translate(-94.011 -275.319)"/>
      <path id="Path_54" data-name="Path 54" d="M238.547,375.128H211.564a11.564,11.564,0,0,1,0-23.128h1.285c7.78,0,22.886,5.67,29.81,14.906a5.139,5.139,0,0,1-4.112,8.222Zm0,0" transform="translate(-167.877 -295.464)" fill="#fc9214"/>
      <path id="Path_55" data-name="Path 55" d="M376,416h2.57v2.57H376Zm0,0" transform="translate(-315.609 -349.185)"/>
      <path id="Path_56" data-name="Path 56" d="M451.855,423.709a3.855,3.855,0,1,1,3.855-3.855A3.86,3.86,0,0,1,451.855,423.709Zm0-5.14a1.285,1.285,0,1,0,1.285,1.285A1.287,1.287,0,0,0,451.855,418.57Zm0,0" transform="translate(-376.045 -349.185)"/>
    </g>
  </g>
</svg>
