<svg xmlns="http://www.w3.org/2000/svg" width="44.308" height="44.29" viewBox="0 0 44.308 44.29">
  <g id="vitamin-e" transform="translate(0 -0.103)">
    <path id="Path_228" data-name="Path 228" d="M144,.1c-2.254,2.518-4.557,5.213-7.3,8.853,1.934,3.238,2.882,5.9,2.882,8.089a12.92,12.92,0,0,1-12.128,12.88A16.692,16.692,0,0,0,160.693,27.7c0-7.839-11.43-21.723-16.692-27.6Zm2.357,13.014h2.606v2.606h-2.606Zm-3.91,3.91h2.606v2.606h-2.606Zm7.819,7.819h-5.213v2.606h5.213v2.606h-5.213v2.606h5.213v2.606h-7.819V22.24h7.819Z" transform="translate(-116.385 -0.001)" fill="#55bd8d"/>
    <path id="Path_229" data-name="Path 229" d="M20.595,17.045c0-4.923-7.024-13.286-10.3-16.942C7.021,3.761,0,12.123,0,17.045a10.3,10.3,0,1,0,20.595,0Z" fill="#55bd8d"/>
  </g>
</svg>
