<svg xmlns="http://www.w3.org/2000/svg" width="160" height="160" viewBox="0 0 160 160">
  <g id="Group_3193" data-name="Group 3193" transform="translate(-400 -771)">
    <circle id="Ellipse_6" data-name="Ellipse 6" cx="80" cy="80" r="80" transform="translate(400 771)" fill="#fff"/>
    <g id="_012-bathing" data-name="012-bathing" transform="translate(446 805)">
      <path id="Path_3" data-name="Path 3" d="M82.194,126.484a9.27,9.27,0,0,0-9.258-9.258h-.094a9.272,9.272,0,0,0-9.164-7.935,9.127,9.127,0,0,0-2.111.246,9.247,9.247,0,0,0-16.939,0,9.127,9.127,0,0,0-2.111-.246,9.273,9.273,0,0,0-9.164,7.935h-.094a9.263,9.263,0,0,0-8.019,13.891l10.664-.665,2.645,7.935h29.1s2.6-7.2,2.7-7.932l10.6.661A9.269,9.269,0,0,0,82.194,126.484Zm0,0" transform="translate(-20.032 -86.806)" fill="#fc9214"/>
      <path id="Path_4" data-name="Path 4" d="M136,210.012v-2.645a6.623,6.623,0,0,0,6.375-4.879l2.553.692A9.271,9.271,0,0,1,136,210.012Zm0,0" transform="translate(-113.516 -169.012)"/>
      <path id="Path_5" data-name="Path 5" d="M3.968,111.935a3.968,3.968,0,1,1,3.968-3.968A3.973,3.973,0,0,1,3.968,111.935Zm0-5.29a1.323,1.323,0,1,0,1.323,1.323A1.323,1.323,0,0,0,3.968,106.645Zm0,0" transform="translate(0 -86.806)"/>
      <path id="Path_6" data-name="Path 6" d="M69.29,10.581a5.29,5.29,0,1,1,5.29-5.29A5.3,5.3,0,0,1,69.29,10.581Zm0-7.935A2.645,2.645,0,1,0,71.935,5.29,2.648,2.648,0,0,0,69.29,2.645Zm0,0" transform="translate(-53.419 0)"/>
      <path id="Path_7" data-name="Path 7" d="M309.29,58.581a5.29,5.29,0,1,1,5.29-5.29A5.3,5.3,0,0,1,309.29,58.581Zm0-7.935a2.645,2.645,0,1,0,2.645,2.645A2.648,2.648,0,0,0,309.29,50.645Zm0,0" transform="translate(-253.742 -40.065)"/>
      <path id="Path_8" data-name="Path 8" d="M387.968,151.935a3.968,3.968,0,1,1,3.968-3.968A3.973,3.973,0,0,1,387.968,151.935Zm0-5.29a1.323,1.323,0,1,0,1.323,1.323A1.323,1.323,0,0,0,387.968,146.645Zm0,0" transform="translate(-320.516 -120.194)"/>
      <path id="Path_9" data-name="Path 9" d="M248,176h2.645v2.645H248Zm0,0" transform="translate(-207 -146.903)"/>
      <path id="Path_10" data-name="Path 10" d="M64,224h2.645v2.645H64Zm0,0" transform="translate(-53.419 -186.968)"/>
      <path id="Path_11" data-name="Path 11" d="M192,144h2.645v2.645H192Zm0,0" transform="translate(-160.258 -120.194)"/>
      <path id="Path_12" data-name="Path 12" d="M208,264h2.645v2.645H208Zm0,0" transform="translate(-173.613 -220.355)"/>
      <path id="Path_13" data-name="Path 13" d="M96,376h30.419v2.645H96Zm0,0" transform="translate(-80.129 -313.839)"/>
      <path id="Path_14" data-name="Path 14" d="M54.961,241.81l-.77,2.308a6.561,6.561,0,0,1-2.244-4.925l.005-.106L49.308,239l-.006.165a9.219,9.219,0,0,0,4,7.614l-.989,2.967H25.126l-2.645-7.935H6.777l5.182,36.271a3.986,3.986,0,0,0,3.926,3.406h45.67a3.962,3.962,0,0,0,3.026-1.408l-2.02-1.707a1.315,1.315,0,0,1-1,.471H15.885a1.327,1.327,0,0,1-1.308-1.135l-1.917-13.414h6.222v-2.645h-6.6L11.906,259H53.269v-2.645H11.527l-1.7-11.9H20.573l2.645,7.936h31l2.645-7.936H67.614l-.165,1.155,2.619.374.6-4.174Zm0,0" transform="translate(-5.656 -199.488)"/>
      <path id="Path_15" data-name="Path 15" d="M290.516,309.032a18.516,18.516,0,1,1,18.516-18.516A18.536,18.536,0,0,1,290.516,309.032Zm0,0" transform="translate(-227.032 -227.032)" fill="#fc9214"/>
      <path id="Path_16" data-name="Path 16" d="M363.968,319.935a3.968,3.968,0,1,1,3.968-3.968A3.973,3.973,0,0,1,363.968,319.935Zm0-5.29a1.323,1.323,0,1,0,1.323,1.323A1.323,1.323,0,0,0,363.968,314.645Zm0,0" transform="translate(-300.484 -260.419)"/>
      <path id="Path_17" data-name="Path 17" d="M313.058,341.219a3.967,3.967,0,0,1-2.805-6.773,4.062,4.062,0,0,1,5.61,0h0a3.968,3.968,0,0,1-2.806,6.773Zm0-5.29a1.321,1.321,0,0,0-.935,2.256,1.348,1.348,0,0,0,1.868,0,1.318,1.318,0,0,0,0-1.87h0a1.3,1.3,0,0,0-.933-.387Zm0,0" transform="translate(-257.99 -278.216)"/>
      <path id="Path_18" data-name="Path 18" d="M414.878,341.219a3.967,3.967,0,0,1-2.8-6.773,4.062,4.062,0,0,1,5.61,0,3.966,3.966,0,0,1,0,5.61h0A3.943,3.943,0,0,1,414.878,341.219Zm0-5.29a1.321,1.321,0,0,0-.934,2.256,1.348,1.348,0,0,0,1.87,0h0a1.322,1.322,0,0,0-.935-2.256Zm0,0" transform="translate(-342.977 -278.216)"/>
      <path id="Path_19" data-name="Path 19" d="M337.258,389.226c-5.191,0-9.258-2.9-9.258-6.613S332.067,376,337.258,376s9.258,2.9,9.258,6.613S342.449,389.226,337.258,389.226Zm0-10.581c-3.584,0-6.613,1.817-6.613,3.968s3.029,3.968,6.613,3.968,6.613-1.817,6.613-3.968S340.842,378.645,337.258,378.645Zm0,0" transform="translate(-273.774 -313.839)"/>
    </g>
  </g>
</svg>
