<svg xmlns="http://www.w3.org/2000/svg" width="44.264" height="26.195" viewBox="0 0 44.264 26.195">
  <path id="fast-delivery" d="M31.555.261C35.392,1.151,36.86,3.4,38.7,6.484H31.555ZM9.127,6.743a1.138,1.138,0,0,1,1.3,1.21,1.3,1.3,0,0,1-1.293,1.3H1.3a1.3,1.3,0,0,0,0,2.594H12.967a1.3,1.3,0,1,1,.005,2.594H1.3a1.3,1.3,0,0,0,0,2.594H4.149v3.89a1.3,1.3,0,0,0,1.3,1.3H8.053a4.972,4.972,0,0,0,9.743,0H30.963a4.972,4.972,0,0,0,9.743,0h2.261a1.3,1.3,0,0,0,1.3-1.3V13.141c0-3.8-4.013-4.058-4.017-4.063H30.258a1.3,1.3,0,0,1-1.3-1.3V0H5.446a1.3,1.3,0,0,0-1.3,1.3V4.15H2.593a1.3,1.3,0,0,0,0,2.594Zm28.388,12.8a2.378,2.378,0,1,1-4.059,1.681A2.378,2.378,0,0,1,37.515,19.543Zm-22.91,0a2.378,2.378,0,1,1-4.059,1.681A2.378,2.378,0,0,1,14.605,19.543Zm0,0" transform="translate(0)" fill="#55bd8d" fill-rule="evenodd"/>
</svg>
