<svg xmlns="http://www.w3.org/2000/svg" width="37.059" height="45.949" viewBox="0 0 37.059 45.949">
  <g id="male-telemarketer" transform="translate(-35.601)">
    <path id="Path_223" data-name="Path 223" d="M111.232,44.587c2.1,4.644,6.609,6.665,8.845,6.665a10.024,10.024,0,0,0,6.026-2.793q-1.154.081-2.471.081c-.206,0-.423,0-.654-.005a2.563,2.563,0,0,1-1.561.534h-1.873a2.559,2.559,0,0,1,0-5.119h1.873a2.55,2.55,0,0,1,1.779.718l.46,0a20.779,20.779,0,0,0,5.053-.489,2.8,2.8,0,0,1-.209-1.065V36.627a2.79,2.79,0,0,1,.684-1.822,10.511,10.511,0,0,0-1.277-4.187c-1.29-2.089-3.778-3.061-7.829-3.061-3.361,0-5.681.7-7.095,2.133a8.352,8.352,0,0,0-2.027,5.1,2.786,2.786,0,0,1,.7,1.84v6.489A2.763,2.763,0,0,1,111.232,44.587Z" transform="translate(-65.946 -24.117)" fill="#55bd8d"/>
    <path id="Path_224" data-name="Path 224" d="M65.552,20.532H67.8A1.532,1.532,0,0,0,69.33,19V12.511a1.53,1.53,0,0,0-.762-1.323c.5-5.314,2.552-9,10.434-9,4.526,0,7.351,1.161,8.892,3.654a12.617,12.617,0,0,1,1.529,5.35,1.529,1.529,0,0,0-.749,1.315V19a1.532,1.532,0,0,0,1.193,1.493c-.99.648-3.041,1.309-7.286,1.309q-.516,0-1.076-.013a1.31,1.31,0,0,0-1.163-.708H78.469a1.311,1.311,0,0,0,0,2.622h1.873a1.308,1.308,0,0,0,1.062-.544c.394.01.78.016,1.153.016,4.785,0,7.827-.817,9.059-2.437q.079-.1.144-.205h.692A1.532,1.532,0,0,0,93.983,19V12.511a1.532,1.532,0,0,0-1.532-1.532h-.845a14.356,14.356,0,0,0-1.849-6.286C87.807,1.535,84.288,0,79,0S70.2,1.535,68.245,4.693A14.358,14.358,0,0,0,66.4,10.979h-.845a1.532,1.532,0,0,0-1.532,1.532V19A1.532,1.532,0,0,0,65.552,20.532Z" transform="translate(-24.871)" fill="#55bd8d"/>
    <path id="Path_225" data-name="Path 225" d="M72.651,221.906c-.509-3.167-1.558-7.246-3.661-8.7-1.434-.989-6.44-3.664-8.578-4.806l-.045-.024a.7.7,0,0,0-.761.067,9.089,9.089,0,0,1-3.649,1.763.7.7,0,0,0-.5.434l-1.324,3.491-1.324-3.491a.7.7,0,0,0-.5-.434,9.092,9.092,0,0,1-3.649-1.763.7.7,0,0,0-.761-.067c-2.114,1.129-7.185,3.86-8.617,4.826-2.422,1.632-3.48,7.534-3.667,8.7a.7.7,0,0,0,.031.344c.087.245,2.308,5.99,18.489,5.99s18.4-5.746,18.489-5.99A.7.7,0,0,0,72.651,221.906Zm-7.534-3.637H58.708v-1.35h6.409Z" transform="translate(0 -182.293)" fill="#55bd8d"/>
  </g>
</svg>
