<svg xmlns="http://www.w3.org/2000/svg" width="160" height="160" viewBox="0 0 160 160">
  <g id="Group_3193" data-name="Group 3193" transform="translate(-784 -771)">
    <circle id="Ellipse_8" data-name="Ellipse 8" cx="80" cy="80" r="80" transform="translate(784 771)" fill="#fff"/>
    <g id="_001-collar" data-name="001-collar" transform="translate(821.109 816.132)">
      <path id="Path_34" data-name="Path 34" d="M176,93.922c1.785.1,3.639.193,5.534.249v13.836c-1.9-.055-3.749-.152-5.534-.249Zm0,0" transform="translate(-145.561 -77.678)" fill="#fc9214"/>
      <path id="Path_35" data-name="Path 35" d="M280,128h2.767v2.767H280Zm0,0" transform="translate(-231.574 -105.863)"/>
      <path id="Path_36" data-name="Path 36" d="M96.248,9.685c0-8.208-38.484-8.3-40.124-8.3-4.065,0-8.041.122-11.867.34a4.119,4.119,0,0,0-7.025.534C23.154,3.643,16,6.139,16,9.685V23.521c0,7.434,31.57,8.212,38.74,8.292v2.973a5.507,5.507,0,0,0,0,10.676v5.731h2.767V45.462a5.507,5.507,0,0,0,0-10.676V31.822h4.151a8.321,8.321,0,0,0,1.527-.147c11.539-.417,33.062-2.017,33.062-8.155Zm-2.764-.022c-.523,1.94-13.814,5.557-37.36,5.557-4,0-7.675-.111-11.069-.293V4.458c3.581-.194,7.281-.307,11.069-.307,23.546,0,36.837,3.616,37.36,5.512ZM61.658,17.987a5.533,5.533,0,0,1,1.073,10.961c-2.111.064-4.3.108-6.608.108-1.922,0-3.749-.032-5.534-.078V24.9h8.3V22.137h-8.3V17.89c3.073.091,5.178.1,5.534.1ZM40.9,2.767a1.385,1.385,0,0,1,1.384,1.384v10.6c-.948-.066-1.873-.136-2.767-.213V4.151A1.385,1.385,0,0,1,40.9,2.767ZM36.753,5.089V14.28C25.4,13.079,19.134,11,18.767,9.711V9.7c.27-.952,5.053-3.263,17.987-4.613ZM18.767,23.521V13.09c5.9,3.223,19.949,4.326,29.055,4.7V28.9c-18.351-.715-28.6-3.7-29.055-5.377Zm40.124,16.6a2.758,2.758,0,0,1-1.384,2.383V40.124H54.74v2.383a2.762,2.762,0,1,1,4.151-2.383Zm9.232-11.408a8.276,8.276,0,0,0-.61-11.073c8.947-.488,20.7-1.677,25.967-4.553V23.5c-.425,1.58-9.335,4.274-25.359,5.218Zm0,0" transform="translate(-13.233 0)"/>
      <path id="Path_37" data-name="Path 37" d="M48,104h2.767v2.767H48Zm0,0" transform="translate(-39.698 -86.013)"/>
      <path id="Path_38" data-name="Path 38" d="M88,120h2.767v2.767H88Zm0,0" transform="translate(-72.781 -99.246)"/>
      <path id="Path_39" data-name="Path 39" d="M128,128h2.767v2.767H128Zm0,0" transform="translate(-105.863 -105.863)"/>
      <path id="Path_40" data-name="Path 40" d="M392.3,217.384V216h-2.767v1.384a4.156,4.156,0,0,1-4.151,4.151H384V224.3h1.384a4.156,4.156,0,0,1,4.151,4.151v1.384H392.3v-1.384a4.156,4.156,0,0,1,4.151-4.151h1.384v-2.767h-1.384A4.156,4.156,0,0,1,392.3,217.384Zm-1.384,6.96a6.927,6.927,0,0,0-1.426-1.426,6.927,6.927,0,0,0,1.426-1.426,6.926,6.926,0,0,0,1.426,1.426A6.926,6.926,0,0,0,390.918,224.344Zm0,0" transform="translate(-317.588 -178.643)"/>
      <path id="Path_41" data-name="Path 41" d="M416,184h2.767v2.767H416Zm0,0" transform="translate(-344.054 -152.178)"/>
      <path id="Path_42" data-name="Path 42" d="M416,312h2.767v2.767H416Zm0,0" transform="translate(-344.054 -258.04)"/>
      <path id="Path_43" data-name="Path 43" d="M480,248h2.767v2.767H480Zm0,0" transform="translate(-396.985 -205.109)"/>
      <path id="Path_44" data-name="Path 44" d="M352,248h2.767v2.767H352Zm0,0" transform="translate(-291.122 -205.109)"/>
      <path id="Path_45" data-name="Path 45" d="M40.3,345.384V344H37.534v1.384a4.156,4.156,0,0,1-4.151,4.151H32V352.3h1.384a4.156,4.156,0,0,1,4.151,4.151v1.384H40.3v-1.384a4.156,4.156,0,0,1,4.151-4.151h1.384v-2.767H44.452A4.156,4.156,0,0,1,40.3,345.384Zm-1.384,6.961a6.926,6.926,0,0,0-1.426-1.426,6.926,6.926,0,0,0,1.426-1.426,6.926,6.926,0,0,0,1.426,1.426A6.926,6.926,0,0,0,38.918,352.344Zm0,0" transform="translate(-26.466 -284.506)"/>
      <path id="Path_46" data-name="Path 46" d="M64,312h2.767v2.767H64Zm0,0" transform="translate(-52.931 -258.04)"/>
      <path id="Path_47" data-name="Path 47" d="M64,440h2.767v2.767H64Zm0,0" transform="translate(-52.931 -363.903)"/>
      <path id="Path_48" data-name="Path 48" d="M128,376h2.767v2.767H128Zm0,0" transform="translate(-105.863 -310.971)"/>
      <path id="Path_49" data-name="Path 49" d="M0,376H2.767v2.767H0Zm0,0" transform="translate(0 -310.971)"/>
      <path id="Path_50" data-name="Path 50" d="M174.677,275.37a5.263,5.263,0,0,1-3.745-1.551l-2.194-2.194a1.39,1.39,0,0,0-.978-.405H156.214a1.388,1.388,0,0,0-.978.405l-2.194,2.194a5.3,5.3,0,0,1-7.491-7.491l.643-.643-.643-.643a5.3,5.3,0,0,1,7.491-7.491l2.194,2.194a1.39,1.39,0,0,0,.978.405h11.544a1.388,1.388,0,0,0,.978-.405l2.194-2.194a5.3,5.3,0,0,1,7.491,7.491l-.643.643.643.643a5.3,5.3,0,0,1-3.745,9.042Zm0,0" transform="translate(-119.095 -211.725)" fill="#fc9214"/>
    </g>
  </g>
</svg>
