<svg xmlns="http://www.w3.org/2000/svg" width="41.438" height="41.494" viewBox="0 0 41.438 41.494">
  <g id="piggy-bank-3" transform="translate(-34.4)">
    <g id="Group_135" data-name="Group 135" transform="translate(34.4)">
      <path id="Path_226" data-name="Path 226" d="M44.843,20.894A10.447,10.447,0,1,0,34.4,10.443,10.444,10.444,0,0,0,44.843,20.894Zm-3.648-6.319c.1-.346.19-.683.294-1.029.121-.4.233-.441.6-.251a5.838,5.838,0,0,0,1.971.588,2.43,2.43,0,0,0,1.288-.173,1.006,1.006,0,0,0,.242-1.763,3.155,3.155,0,0,0-.735-.432,17.449,17.449,0,0,1-2.014-.9,2.848,2.848,0,0,1-1.608-2.723,2.992,2.992,0,0,1,2.187-2.775c.536-.2.536-.19.545-.752V3.795c.009-.424.086-.493.5-.51h.389c.9,0,.9,0,.9.9,0,.631,0,.64.631.735a5.61,5.61,0,0,1,1.392.415.415.415,0,0,1,.268.545c-.112.389-.216.778-.346,1.158-.121.363-.233.415-.579.251A4.445,4.445,0,0,0,44.9,6.847a1.522,1.522,0,0,0-.588.121.836.836,0,0,0-.207,1.487,3.6,3.6,0,0,0,.96.536,17.656,17.656,0,0,1,1.755.8,3.142,3.142,0,0,1,1.011,4.772,3.362,3.362,0,0,1-1.746,1.115.487.487,0,0,0-.424.553c.017.311,0,.614,0,.925a.383.383,0,0,1-.415.432c-.329.009-.666.009-.994,0a.4.4,0,0,1-.432-.458c0-.225,0-.45-.009-.674-.009-.493-.017-.519-.5-.6a6.039,6.039,0,0,1-1.772-.51C41.117,15.145,41.074,15.033,41.195,14.575Z" transform="translate(-34.4)" fill="#55bd8d"/>
      <path id="Path_227" data-name="Path 227" d="M91.5,124.182H90.07a13.9,13.9,0,0,0-5.257-6.345,1.007,1.007,0,0,0-.041-.242,4.335,4.335,0,0,1,.863-3.968c.518-.709-.152-1.617-1.126-1.513A9.4,9.4,0,0,0,79.79,113.8a3.858,3.858,0,0,0-1.441,2.023c-1.563,5.515-7.4,9.621-14.349,9.621a16.388,16.388,0,0,1-8.971-2.593A10.73,10.73,0,0,0,53.7,128a10.434,10.434,0,0,0,.406,2.87h0a.131.131,0,0,0,.01.043,11.4,11.4,0,0,0,1.218,2.758,14.509,14.509,0,0,0,3.115,4.011,7.069,7.069,0,0,1,2.415,4.919v.467h0a1.007,1.007,0,0,0,1.055.839h6.413a.986.986,0,0,0,1.055-.9v-1.349a25.842,25.842,0,0,0,2.852.164c.761,0,1.5-.035,2.243-.1v1.288a.986.986,0,0,0,1.055.9h6.434a.986.986,0,0,0,1.055-.9v-1.349a5.075,5.075,0,0,1,2.182-3.769l.213-.156c.02-.017.041-.026.061-.043h0a13.547,13.547,0,0,0,4.688-6.1h1.35a1.822,1.822,0,0,0,1.948-1.66v-4.089A1.855,1.855,0,0,0,91.5,124.182Zm-8.027.294a1.375,1.375,0,1,1,1.593-1.357A1.486,1.486,0,0,1,83.474,124.476Z" transform="translate(-52.032 -102.415)" fill="#55bd8d"/>
    </g>
  </g>
</svg>
