<svg xmlns="http://www.w3.org/2000/svg" width="160" height="160" viewBox="0 0 160 160">
  <g id="Group_3195" data-name="Group 3195" transform="translate(-1168 -771)">
    <circle id="Ellipse_10" data-name="Ellipse 10" cx="80" cy="80" r="80" transform="translate(1168 771)" fill="#fff"/>
    <g id="Group_5" data-name="Group 5">
      <path id="Path_75" data-name="Path 75" d="M1267.564,882.11V852.558s-28.284,3.919-28.915,30.317C1238.9,882.875,1267.564,882.11,1267.564,882.11Z" fill="#fc9214"/>
      <path id="XMLID_612_" d="M33.259,12.866H30.286a6.278,6.278,0,1,1,7.765,6.1v7.445h4.085v2.973H30.993V26.412h4.085V16.172h1.486a3.305,3.305,0,1,0-3.305-3.305ZM43.6,42.048H40.27v2.973H43.6Zm-10.74,0H29.53v2.973h3.329ZM44.13,56.108v1.353a5.074,5.074,0,0,1-5.068,5.068H38.051v5.009H35.078V62.529H34.067A5.074,5.074,0,0,1,29,57.461V56.108a5.074,5.074,0,0,1,5.068-5.068h4.995A5.074,5.074,0,0,1,44.13,56.108Zm-2.973,0a2.1,2.1,0,0,0-2.095-2.095H34.067a2.1,2.1,0,0,0-2.095,2.095v1.353a2.1,2.1,0,0,0,2.095,2.095h4.995a2.1,2.1,0,0,0,2.095-2.095ZM73.129,40.139,60.394,52.874,56.04,48.519V77.54H17.089V48.519l-4.354,4.354L0,40.139,17.168,20.695H32.306v2.973H25.985l1.475,7.462a1.674,1.674,0,0,0,.367.858H45.3a1.675,1.675,0,0,0,.368-.858l1.475-7.462H40.823V20.695H55.961Zm-12.734,8.53,8.656-8.657L54.62,23.668H50.175l-1.589,8.038c-.4,2.008-1.649,3.255-3.268,3.255H27.811c-1.619,0-2.871-1.247-3.268-3.255l-1.589-8.038H18.509L4.078,40.012l8.656,8.657L16.8,44.6h3.263V74.567H53.067V44.6H56.33Z" transform="translate(1212.936 806.713)"/>
    </g>
  </g>
</svg>
