<svg xmlns="http://www.w3.org/2000/svg" width="160" height="160" viewBox="0 0 160 160">
  <g id="Group_3194" data-name="Group 3194" transform="translate(-592 -771)">
    <circle id="Ellipse_7" data-name="Ellipse 7" cx="80" cy="80" r="80" transform="translate(592 771)" fill="#fff"/>
    <g id="_018-dog-food" data-name="018-dog-food" transform="translate(630.171 819.17)">
      <path id="Path_20" data-name="Path 20" d="M78.448,133.826A1.946,1.946,0,0,0,79.611,132v-5.4c0-1.764-2.085-2.23-8.117-3.326l-1.11-.2-.49,2.655,1.119.2c1.235.224,2.959.537,4.3.847C70.7,128,58.172,129.306,41.829,129.306S12.954,128,8.346,126.784c1.341-.309,3.066-.623,4.3-.847l1.119-.2-.49-2.655-1.11.2c-6.033,1.094-8.119,1.562-8.119,3.326V132a1.944,1.944,0,0,0,1.16,1.82L.052,151.875l-.053.37c0,.938,0,1.908,7.841,3.882,4.814,1.212,20.938,4.673,31.618,5.163l-2.6-3.167c-10.628-.85-31.725-5.306-33.969-6.356l.614-2.151c4.392,1.531,18.415,4.245,28.921,5.314l.273-2.685c-3.759-.382-11.825-1.611-15.007-2.14l2.262-13.567c6.456.552,14.211.864,21.877.864s15.421-.312,21.877-.865L65.968,150.1c-3.182.528-11.168,1.945-14.926,2.328l.273,2.685c10.506-1.069,24.451-3.972,28.842-5.5l.614,2.151c-2.244,1.051-25.438,6.486-37.927,6.847l.339,2.677a186.034,186.034,0,0,0,32.638-5.166c7.84-1.971,7.84-2.942,7.84-3.879Zm-70.71.965a39.821,39.821,0,0,0,4.109.818L8.407,148.228c-1.735-.43-3.151-.842-4.163-1.2Zm3.3,14.047,3.505-12.854c.613.075,1.255.15,1.939.224.25.026.522.049.777.076l-2.226,13.355q-2.15-.4-4-.8ZM41.829,134.7c-18.994,0-32.838-1.764-35.083-3.1v-2.5a50.609,50.609,0,0,0,9.735,1.71A249.942,249.942,0,0,0,41.829,132a249.942,249.942,0,0,0,25.348-1.194,50.717,50.717,0,0,0,9.735-1.71v2.5c-2.245,1.338-16.09,3.1-35.083,3.1Zm26.8,14.936L66.4,136.285c.255-.026.528-.05.777-.076.685-.074,1.328-.149,1.939-.224l3.505,12.854q-1.845.4-4,.8Zm6.627-1.411-3.441-12.619a40.222,40.222,0,0,0,4.109-.818l3.495,12.232c-1.012.362-2.427.775-4.163,1.205Zm0,0" transform="translate(0 -102.319)"/>
      <path id="Path_21" data-name="Path 21" d="M138.795,277.59a10.795,10.795,0,1,1,10.795-10.795A10.807,10.807,0,0,1,138.795,277.59Zm0,0" transform="translate(-96.966 -218.375)" fill="#fc9214"/>
      <path id="Path_22" data-name="Path 22" d="M226.159,308.318a2.159,2.159,0,1,1,2.159-2.159A2.162,2.162,0,0,1,226.159,308.318Zm0-2.879a.72.72,0,1,0,.72.72A.721.721,0,0,0,226.159,305.439Zm0,0" transform="translate(-184.33 -262.057)"/>
      <path id="Path_23" data-name="Path 23" d="M175.249,329.415a2.158,2.158,0,1,1,1.526-.631,2.153,2.153,0,0,1-1.526.631Zm0-2.877a.719.719,0,1,0,.508.21A.717.717,0,0,0,175.249,326.538Zm0,0" transform="translate(-137.999 -281.258)"/>
      <path id="Path_24" data-name="Path 24" d="M277.062,329.414a2.156,2.156,0,1,1,1.526-.631A2.152,2.152,0,0,1,277.062,329.414Zm0-2.876a.719.719,0,1,0,.508,1.227.719.719,0,0,0-.508-1.227Zm0,0" transform="translate(-230.653 -281.257)"/>
      <path id="Path_25" data-name="Path 25" d="M197.038,375.2c-2.825,0-5.038-1.58-5.038-3.6s2.213-3.6,5.038-3.6,5.038,1.58,5.038,3.6S199.862,375.2,197.038,375.2Zm0-5.757c-1.95,0-3.6.989-3.6,2.159s1.648,2.159,3.6,2.159,3.6-.989,3.6-2.159S198.988,369.439,197.038,369.439Zm0,0" transform="translate(-155.208 -320.3)"/>
      <path id="Path_26" data-name="Path 26" d="M130.445,25.349a8.766,8.766,0,0,0,.927-3.76,6.725,6.725,0,0,0-4.094-6.185,6.757,6.757,0,0,0-5.913-5.913,6.63,6.63,0,0,0-6.74-4.067,6.782,6.782,0,0,0-6.192-4.075,6.508,6.508,0,0,0-2.245.4,6.661,6.661,0,0,0-9,0,6.508,6.508,0,0,0-2.245-.4,6.781,6.781,0,0,0-6.192,4.076,6.626,6.626,0,0,0-6.74,4.067,6.758,6.758,0,0,0-5.913,5.913A6.722,6.722,0,0,0,72,21.59a8.884,8.884,0,0,0,.909,3.757,217.914,217.914,0,0,0,28.777,1.641,217.829,217.829,0,0,0,28.759-1.638Zm0,0" transform="translate(-59.857)" fill="#fc9214"/>
      <path id="Path_27" data-name="Path 27" d="M176,88h2.7v2.7H176Zm0,0" transform="translate(-146.315 -73.157)"/>
      <path id="Path_28" data-name="Path 28" d="M280,40h2.7v2.7H280Zm0,0" transform="translate(-232.773 -33.253)"/>
      <path id="Path_29" data-name="Path 29" d="M240,120h2.7v2.7H240Zm0,0" transform="translate(-199.52 -99.76)"/>
      <path id="Path_30" data-name="Path 30" d="M304,96h2.7v2.7H304Zm0,0" transform="translate(-252.725 -79.808)"/>
      <path id="Path_31" data-name="Path 31" d="M204.048,44.048A4.053,4.053,0,0,1,200,40h2.7a1.351,1.351,0,0,0,1.349,1.349Zm0,0" transform="translate(-166.267 -33.253)"/>
      <path id="Path_32" data-name="Path 32" d="M352,124.048v-2.7A1.351,1.351,0,0,0,353.349,120h2.7A4.053,4.053,0,0,1,352,124.048Zm0,0" transform="translate(-292.629 -99.76)"/>
      <path id="Path_33" data-name="Path 33" d="M124.048,124.048A4.053,4.053,0,0,1,120,120h2.7a1.351,1.351,0,0,0,1.349,1.349Zm0,0" transform="translate(-99.761 -99.76)"/>
    </g>
  </g>
</svg>
