<svg xmlns="http://www.w3.org/2000/svg" width="160" height="160" viewBox="0 0 160 160">
  <g id="Group_3196" data-name="Group 3196" transform="translate(-1360 -771)">
    <circle id="Ellipse_11" data-name="Ellipse 11" cx="80" cy="80" r="80" transform="translate(1360 771)" fill="#fff"/>
    <g id="_029-insect-repellent" data-name="029-insect-repellent" transform="translate(1400 811)">
      <path id="Path_57" data-name="Path 57" d="M189.677,66.371V60.9h-5.161V54.451a6.452,6.452,0,1,0-12.9,0V60.9h-5.161v5.468A8.714,8.714,0,0,0,160,74.77c0,.255.011.512.033.765l3.633,41.193a3.854,3.854,0,0,0,3.857,3.53h21.081a3.852,3.852,0,0,0,3.856-3.53l.752-8.521-2.571-.227-.752,8.521a1.284,1.284,0,0,1-1.285,1.177H167.524a1.284,1.284,0,0,1-1.285-1.177l-3.633-41.195c-.017-.178-.025-.356-.025-.536a6.131,6.131,0,0,1,6.125-6.125h18.717a6.131,6.131,0,0,1,6.125,6.125c0,.075-.005.148-.009.223l-.006.1,2.583.05c.006-.127.013-.25.013-.376a8.712,8.712,0,0,0-6.452-8.4Zm-2.581-.307h-2.581V63.484H187.1Zm-10.323-2.581v2.581h-2.581V63.484Zm2.581,0h2.581v2.581h-2.581Zm-5.161-9.032a3.871,3.871,0,0,1,7.742,0V60.9h-7.742Zm-2.581,9.032v2.581h-2.581V63.484Zm0,0" transform="translate(-134.194 -40.258)"/>
      <path id="Path_58" data-name="Path 58" d="M234.065,199.742V192H216v43.871h18.065V225.548h-2.581v7.742h-12.9v-38.71h12.9v5.161Zm0,0" transform="translate(-181.161 -161.032)"/>
      <path id="Path_59" data-name="Path 59" d="M248,224h7.742v2.581H248Zm0,0" transform="translate(-208 -187.871)"/>
      <path id="Path_60" data-name="Path 60" d="M248,256h7.742v2.581H248Zm0,0" transform="translate(-208 -214.71)"/>
      <path id="Path_61" data-name="Path 61" d="M248,288h5.161v2.581H248Zm0,0" transform="translate(-208 -241.548)"/>
      <path id="Path_62" data-name="Path 62" d="M248,320h5.161v2.581H248Zm0,0" transform="translate(-208 -268.387)"/>
      <path id="Path_63" data-name="Path 63" d="M248,352h6.452v2.581H248Zm0,0" transform="translate(-208 -295.226)"/>
      <path id="Path_64" data-name="Path 64" d="M248,384h7.742v2.581H248Zm0,0" transform="translate(-208 -322.065)"/>
      <path id="Path_65" data-name="Path 65" d="M248,416h7.742v2.581H248Zm0,0" transform="translate(-208 -348.903)"/>
      <path id="Path_66" data-name="Path 66" d="M46.452,2.581a3.876,3.876,0,0,1,3.871,3.871H52.9a6.452,6.452,0,1,0-12.9,0h2.581A3.876,3.876,0,0,1,46.452,2.581Zm0,0" transform="translate(-33.548)"/>
      <path id="Path_67" data-name="Path 67" d="M46.452,155.871A3.876,3.876,0,0,1,42.581,152H40a6.452,6.452,0,1,0,12.9,0H50.323A3.876,3.876,0,0,1,46.452,155.871Zm0,0" transform="translate(-33.548 -127.484)"/>
      <path id="Path_68" data-name="Path 68" d="M6.452,66.323a3.871,3.871,0,1,1,0-7.742V56a6.452,6.452,0,0,0,0,12.9Zm0,0" transform="translate(0 -46.968)"/>
      <path id="Path_69" data-name="Path 69" d="M101.473,58.856A51.491,51.491,0,0,0,117.784,61.5h.871V58.921h-.871a48.891,48.891,0,0,1-15.495-2.515Zm0,0" transform="translate(-85.106 -47.309)"/>
      <path id="Path_70" data-name="Path 70" d="M101.473,98.646l.817,2.448a48.92,48.92,0,0,1,15.495-2.514h.871V96h-.871a51.491,51.491,0,0,0-16.311,2.646Zm0,0" transform="translate(-85.106 -80.516)"/>
      <path id="Path_71" data-name="Path 71" d="M72,77.161v2.581A3.871,3.871,0,0,0,72,72v2.581a1.29,1.29,0,0,1,0,2.581Zm0,0" transform="translate(-60.387 -60.387)"/>
      <path id="Path_72" data-name="Path 72" d="M264,88h2.581v2.581H264Zm0,0" transform="translate(-221.419 -73.806)"/>
      <path id="Path_73" data-name="Path 73" d="M290.065,244.129a18.065,18.065,0,1,1,18.065-18.065A18.084,18.084,0,0,1,290.065,244.129Zm0,0" transform="translate(-228.129 -174.452)" fill="#fc9214"/>
      <path id="Path_74" data-name="Path 74" d="M331.355,256.774h3.871v-2.581h-3.871v-1.2H334.4v-2.581h-3.46a7.754,7.754,0,0,0-2.162-3.266v-1.987a5.161,5.161,0,1,0-10.323,0v1.987a7.806,7.806,0,0,0-1.533,1.884H312v2.581h3.987a7.787,7.787,0,0,0-.116,1.29v1.29H312v2.581h3.871v1.29a7.788,7.788,0,0,0,.116,1.29H312v2.581h4.919a7.724,7.724,0,0,0,13.388,0h4.919v-2.581h-3.987a7.784,7.784,0,0,0,.116-1.29Zm-7.742-6.452a4.862,4.862,0,0,1-3.466-1.218,5.089,5.089,0,0,1,6.932,0A4.862,4.862,0,0,1,323.613,250.323Zm-2.581-5.161a2.581,2.581,0,1,1,5.161,0v.452a7.6,7.6,0,0,0-5.161,0Zm7.742,12.9a5.155,5.155,0,0,1-3.871,4.978v-4.978h-2.581v4.978a5.155,5.155,0,0,1-3.871-4.978V252.9a5.081,5.081,0,0,1,.283-1.61,7.175,7.175,0,0,0,3.588,1.513v2.678H324.9v-2.676a7.175,7.175,0,0,0,3.588-1.513,5.066,5.066,0,0,1,.283,1.609Zm0,0" transform="translate(-261.677 -201.29)"/>
    </g>
  </g>
</svg>
