<svg xmlns="http://www.w3.org/2000/svg" width="110.442" height="158.183" viewBox="0 0 110.442 158.183">
  <g id="Group_100" data-name="Group 100" transform="translate(-1790.19 -2872.056)">
    <path id="Path_114" data-name="Path 114" d="M20.681,9.776c1.042,4.34-2.539,6.51-4.991,11.371-3.6,7.2-8.312,7.292-10.156,3.971s1.107-7.357,0-11.22h0C4.622,9.949,0,7.931,0,4.112s4.145-6.12,10.851-1.693C15.343,5.436,19.531,5.414,20.681,9.776Z" transform="matrix(0.07, -0.998, 0.998, 0.07, 1809.096, 2973.665)" fill="#f0f0f0"/>
    <path id="Path_199" data-name="Path 199" d="M20.681,9.776c1.042,4.34-2.539,6.51-4.991,11.371-3.6,7.2-8.312,7.292-10.156,3.971s1.107-7.357,0-11.22h0C4.622,9.949,0,7.931,0,4.112s4.145-6.12,10.851-1.693C15.343,5.436,19.531,5.414,20.681,9.776Z" transform="matrix(-0.309, -0.951, 0.951, -0.309, 1869.17, 3030.239)" fill="#f0f0f0"/>
    <path id="Path_115" data-name="Path 115" d="M8.6.82C4.864-.764,1.11.017.2,2.556s1.411,5.9,5.143,7.487,7.509.8,8.42-1.758S12.351,2.383,8.6.82Z" transform="matrix(0.07, -0.998, 0.998, 0.07, 1829.039, 2957.158)" fill="#f0f0f0"/>
    <path id="Path_203" data-name="Path 203" d="M8.6.82C4.864-.764,1.11.017.2,2.556s1.411,5.9,5.143,7.487,7.509.8,8.42-1.758S12.351,2.383,8.6.82Z" transform="matrix(-0.309, -0.951, 0.951, -0.309, 1881.477, 3007.464)" fill="#f0f0f0"/>
    <path id="Path_116" data-name="Path 116" d="M9.44,9.919C6.966,13.2,3.32,14.433,1.3,12.675s-1.649-5.838.825-9.115,6.12-4.492,8.051-2.8S11.914,6.664,9.44,9.919Z" transform="matrix(0.07, -0.998, 0.998, 0.07, 1798.348, 2961.361)" fill="#f0f0f0"/>
    <path id="Path_201" data-name="Path 201" d="M9.44,9.919C6.966,13.2,3.32,14.433,1.3,12.675s-1.649-5.838.825-9.115,6.12-4.492,8.051-2.8S11.914,6.664,9.44,9.919Z" transform="matrix(-0.309, -0.951, 0.951, -0.309, 1854.595, 3022.858)" fill="#f0f0f0"/>
    <path id="Path_117" data-name="Path 117" d="M7.133.034C2.945.359-.246,2.963.015,5.849s3.863,4.97,8.051,4.644,7.378-2.93,7.118-5.816S11.321-.292,7.133.034Z" transform="matrix(0.07, -0.998, 0.998, 0.07, 1818.719, 2949.574)" fill="#f0f0f0"/>
    <path id="Path_202" data-name="Path 202" d="M7.133.034C2.945.359-.246,2.963.015,5.849s3.863,4.97,8.051,4.644,7.378-2.93,7.118-5.816S11.321-.292,7.133.034Z" transform="matrix(-0.309, -0.951, 0.951, -0.309, 1869.068, 3004.298)" fill="#f0f0f0"/>
    <path id="Path_118" data-name="Path 118" d="M9.308,10.6C5.532,12.444,1.5,11.814.324,9.167S1.257,2.9,5.055,1.05s7.834-1.194,9.006,1.432S13.106,8.754,9.308,10.6Z" transform="matrix(0.07, -0.998, 0.998, 0.07, 1805.712, 2951.455)" fill="#f0f0f0"/>
    <path id="Path_200" data-name="Path 200" d="M9.308,10.6C5.532,12.444,1.5,11.814.324,9.167S1.257,2.9,5.055,1.05s7.834-1.194,9.006,1.432S13.106,8.754,9.308,10.6Z" transform="matrix(-0.309, -0.951, 0.951, -0.309, 1857.712, 3010.914)" fill="#f0f0f0"/>
    <path id="Path_119" data-name="Path 119" d="M19.389,12.82c.217,4.536-3.668,5.816-6.966,10.113C7.6,29.226,2.917,28.358,1.7,24.734s2.409-6.966,2.04-10.851h0C3.5,9.89-.6,7,.074,3.271s5.165-5.143,10.851.521C14.9,7.5,18.933,8.306,19.389,12.82Z" transform="matrix(0.07, -0.998, 0.998, 0.07, 1865.157, 2928.473)" fill="#f0f0f0"/>
    <path id="Path_120" data-name="Path 120" d="M9.17,1.725c-3.407-2.3-7.248-2.3-8.681,0S.9,7.758,4.309,10.08s7.248,2.3,8.681,0S12.577,4.026,9.17,1.725Z" transform="matrix(0.07, -0.998, 0.998, 0.07, 1887.907, 2915.861)" fill="#f0f0f0"/>
    <path id="Path_121" data-name="Path 121" d="M9.291,10.006C6.274,12.7,2.455,13.153.784,11.026S.2,4.993,3.236,2.345,10.072-.8,11.743,1.325,12.394,7.293,9.291,10.006Z" transform="matrix(0.07, -0.998, 0.998, 0.07, 1857.766, 2915.528)" fill="#f0f0f0"/>
    <path id="Path_122" data-name="Path 122" d="M8.066.093C3.878-.45.275,1.438.015,4.433s2.93,5.556,7.118,6.055,7.791-1.345,8.051-4.21S12.254.635,8.066.093Z" transform="matrix(0.07, -0.998, 0.998, 0.07, 1879.929, 2906.822)" fill="#f0f0f0"/>
    <path id="Path_123" data-name="Path 123" d="M8.8,10.537C4.743,11.578.88,10.124.12,7.3S2.29,1.379,6.24.337s7.943.412,8.681,3.233S12.881,9.5,8.8,10.537Z" transform="matrix(0.07, -0.998, 0.998, 0.07, 1867.109, 2906.836)" fill="#f0f0f0"/>
    <path id="Path_124" data-name="Path 124" d="M21.266,4.043c2.322,3.841-.391,7.053-1.194,12.587-1.172,8.116-5.556,9.852-8.312,7.335s-1.215-7.422-3.407-10.72h0C6.183,9.88,1.409,9.533.237,5.887s2-7.27,9.549-5.36C14.929,1.764,18.748.31,21.266,4.043Z" transform="matrix(0.07, -0.998, 0.998, 0.07, 1805.694, 2912.557)" fill="#f0f0f0"/>
    <path id="Path_125" data-name="Path 125" d="M7.336.016C3.343-.2.066,1.86,0,4.595S3.126,9.738,7.119,9.933s7.27-1.845,7.335-4.579S11.329.211,7.336.016Z" transform="matrix(0.07, -0.998, 0.998, 0.07, 1818.542, 2891.073)" fill="#f0f0f0"/>
    <path id="Path_126" data-name="Path 126" d="M9.4,9.206c-1.3,3.971-4.34,6.51-6.771,5.447S-.716,9.661.608,5.69,4.948-.82,7.4.243,10.721,5.213,9.4,9.206Z" transform="matrix(0.07, -0.998, 0.998, 0.07, 1790.19, 2902.838)" fill="#f0f0f0"/>
    <path id="Path_127" data-name="Path 127" d="M5.2.961C1.36,2.741-.832,6.322.3,8.991S5.44,12.376,9.281,10.6s6.011-5.339,4.883-8.008S9.02-.8,5.2.961Z" transform="matrix(0.07, -0.998, 0.998, 0.07, 1804.972, 2886.482)" fill="#f0f0f0"/>
    <path id="Path_128" data-name="Path 128" d="M9.889,10.571c-2.995,3.082-6.966,3.863-8.876,1.758S-.029,6.036,2.966,2.954,9.932-.93,11.842,1.175,12.883,7.49,9.889,10.571Z" transform="matrix(0.07, -0.998, 0.998, 0.07, 1793.022, 2891.608)" fill="#f0f0f0"/>
  </g>
</svg>
