<svg xmlns="http://www.w3.org/2000/svg" width="134.305" height="152.192" viewBox="0 0 134.305 152.192">
  <g id="Group_95" data-name="Group 95" transform="translate(-1671.389 -2352)">
    <path id="Path_167" data-name="Path 167" d="M20.3,17.241c-1.02,4.34-5.1,4.34-9.44,7.444C4.477,29.2.2,26.855.006,23.1s4.21-5.881,4.926-9.766h0C5.8,9.472,2.61,5.458,4.281,2.137S10.662-1.161,14.655,6C17.411,10.8,21.078,12.814,20.3,17.241Z" transform="matrix(-0.326, -0.946, 0.946, -0.326, 1711.035, 2504.192)" fill="#f0f0f0"/>
    <path id="Path_168" data-name="Path 168" d="M9.411,3.435C6.742.2,3.031-.905,1.122.787S-.2,6.625,2.445,9.88s6.38,4.34,8.29,2.648S12.059,6.69,9.411,3.435Z" transform="matrix(-0.326, -0.946, 0.946, -0.326, 1731.021, 2484.834)" fill="#f0f0f0"/>
    <path id="Path_169" data-name="Path 169" d="M8.75,10.06C5.1,11.666,1.306,10.928.265,8.389S1.35,2.487,5,.859s7.444-.868,8.485,1.649S12.417,8.433,8.75,10.06Z" transform="matrix(-0.326, -0.946, 0.946, -0.326, 1703.068, 2489.192)" fill="#f0f0f0"/>
    <ellipse id="Ellipse_16" data-name="Ellipse 16" cx="7.791" cy="5.122" rx="7.791" ry="5.122" transform="translate(1719.879 2475.024) rotate(-81)" fill="#f0f0f0"/>
    <path id="Path_170" data-name="Path 170" d="M7.445,10.482C3.235,10.221-.085,7.639,0,4.753S3.6-.239,7.814.022s7.53,2.843,7.422,5.729S11.785,10.764,7.445,10.482Z" transform="matrix(-0.326, -0.946, 0.946, -0.326, 1711.176, 2478.708)" fill="#f0f0f0"/>
    <path id="Path_171" data-name="Path 171" d="M20.749,9.088c1.194,4.34-2.279,6.51-4.557,11.588-3.32,7.357-8.029,7.639-9.983,4.34s.825-7.422-.391-11.22h0C4.734,9.956.133,8.133,0,4.313S3.888-2,10.658,2.143C15.259,4.943,19.339,4.747,20.749,9.088Z" transform="matrix(0.326, -0.946, 0.946, 0.326, 1679.305, 2427.86)" fill="#f0f0f0"/>
    <ellipse id="Ellipse_17" data-name="Ellipse 17" cx="7.357" cy="4.883" rx="7.357" ry="4.883" transform="translate(1701.011 2413.484) rotate(-48)" fill="#f0f0f0"/>
    <path id="Path_172" data-name="Path 172" d="M9.459,9.844C7.094,13.208,3.513,14.6,1.429,12.926s-1.866-5.773.5-9.136S7.875-.963,9.936.708,11.8,6.459,9.459,9.844Z" transform="matrix(0.326, -0.946, 0.946, 0.326, 1671.389, 2413.331)" fill="#f0f0f0"/>
    <path id="Path_173" data-name="Path 173" d="M6.928.079C2.761.556-.321,3.29.027,6.177s4.058,4.8,8.225,4.34S15.5,7.283,15.131,4.4,11.094-.421,6.928.079Z" transform="matrix(0.326, -0.946, 0.946, 0.326, 1693.751, 2406.511)" fill="#f0f0f0"/>
    <path id="Path_174" data-name="Path 174" d="M9.41,10.617c-3.711,2-7.769,1.541-9.028-1.063s.694-6.315,4.34-8.312S12.47-.3,13.75,2.284,13.056,8.664,9.41,10.617Z" transform="matrix(0.326, -0.946, 0.946, 0.326, 1680.626, 2405.328)" fill="#f0f0f0"/>
    <path id="Path_175" data-name="Path 175" d="M20.958,19.028c-1.606,4.167-5.664,3.537-10.395,5.881C3.619,28.338-.287,25.43.016,21.654s4.991-5.143,6.25-8.876h0C7.655,9.11,5.051,4.64,7.156,1.623s6.792-2.17,9.766,5.447C19.027,12.235,22.391,14.8,20.958,19.028Z" transform="translate(1776.923 2478.708) rotate(-121)" fill="#f0f0f0"/>
    <path id="Path_176" data-name="Path 176" d="M9.475,4.417C7.305.815,3.768-.943,1.619.511s-2.17,5.556,0,9.158S7.349,15.051,9.5,13.6,11.667,8.063,9.475,4.417Z" transform="translate(1793.604 2456.023) rotate(-121)" fill="#f0f0f0"/>
    <path id="Path_177" data-name="Path 177" d="M8.316,10.01c-3.841,1.02-7.509-.3-8.2-2.973S2,1.395,5.864.353s7.509.3,8.2,2.973S12.266,8.99,8.316,10.01Z" transform="translate(1767.199 2462.207) rotate(-121)" fill="#f0f0f0"/>
    <path id="Path_178" data-name="Path 178" d="M9.537,1.782C5.913-.627,1.855-.561.466,1.782S.9,8.141,4.5,10.463s7.682,2.344,9.071,0S13.161,4.169,9.537,1.782Z" transform="translate(1785.388 2448.398) rotate(-121)" fill="#f0f0f0"/>
    <ellipse id="Ellipse_18" data-name="Ellipse 18" cx="7.682" cy="5.187" rx="7.682" ry="5.187" transform="translate(1772.023 2450.447) rotate(-106)" fill="#f0f0f0"/>
    <path id="Path_179" data-name="Path 179" d="M19.966,11.543c.586,4.492-3.168,6.12-6.12,10.72-4.34,6.727-9.028,6.272-10.525,2.756s1.845-7.161,1.172-11.111h0C3.95,9.937-.347,7.4.022,3.622s4.731-5.6,10.851-.434C15.083,6.639,19.163,6.964,19.966,11.543Z" transform="translate(1741.876 2393.441) rotate(-98)" fill="#f0f0f0"/>
    <path id="Path_180" data-name="Path 180" d="M8.88,1.3c-3.559-2-7.4-1.649-8.55.76s.8,6.011,4.34,8.008,7.378,1.671,8.55-.76S12.461,3.295,8.88,1.3Z" transform="translate(1760.064 2374.869) rotate(-98)" fill="#f0f0f0"/>
    <path id="Path_181" data-name="Path 181" d="M9.386,10.008c-2.8,2.951-6.51,3.754-8.377,1.78S-.054,5.819,2.746,2.868s6.51-3.754,8.4-1.8S12.186,7.056,9.386,10.008Z" transform="translate(1730.55 2382.902) rotate(-98)" fill="#f0f0f0"/>
    <path id="Path_182" data-name="Path 182" d="M7.682.01C3.472-.164.022,2.049,0,4.936s3.342,5.382,7.552,5.534,7.661-2.04,7.682-4.926S11.892.161,7.682.01Z" transform="translate(1749.52 2368.544) rotate(-98)" fill="#f0f0f0"/>
    <path id="Path_183" data-name="Path 183" d="M8.993,10.591C5.022,11.98,1.072,10.874.182,8.118S1.745,2.019,5.716.609s7.921-.282,8.832,2.474S12.964,9.181,8.993,10.591Z" transform="translate(1736.975 2372.004) rotate(-98)" fill="#f0f0f0"/>
  </g>
</svg>
