<svg xmlns="http://www.w3.org/2000/svg" width="46.659" height="36.433" viewBox="0 0 46.659 36.433">
  <g id="Group_104" data-name="Group 104" transform="translate(-451.67 -4669.567)">
    <path id="Path_204" data-name="Path 204" d="M734.43,4943.465H714.01v-22.672c0-6.668,5.281-13.738,11.948-13.759,1.035,0,1.861,0,1.861,0v4.7s-8.063,2.016-6.856,9.059c.522,2.351,1.469,2.938,1.469,2.938h12Z" transform="translate(-262.34 -237.465)" fill="#fc9214" opacity="0.5"/>
    <path id="Path_205" data-name="Path 205" d="M734.43,4943.465H714.01v-22.672c0-6.668,5.281-13.738,11.948-13.759,1.035,0,1.861,0,1.861,0v4.7s-8.063,2.016-6.856,9.059c.522,2.351,1.469,2.938,1.469,2.938h12Z" transform="translate(-236.1 -237.465)" fill="#fc9214" opacity="0.5"/>
  </g>
</svg>
